<svg width="162" height="112" viewBox="0 0 162 112" fill="none" xmlns="http://www.w3.org/2000/svg">
<path d="M4.83333 68.0282L4.83333 65.6776H7.44319V63.6035H9.3444V65.643H13.4407C14.374 65.643 14.7888 65.2973 14.7888 64.364C14.7888 64.0356 14.7197 63.5862 14.7197 63.5862H16.7246C16.7591 63.9492 16.8283 64.6406 16.8283 65.4183C16.8283 67.2331 16.0505 68.3566 13.9592 68.3566L9.3444 68.3566V69.722H7.46047V69.4109C7.46047 68.2356 7.2185 68.0282 5.54197 68.0282H4.83333Z" fill="#894D99"/>
<path d="M16.7073 56.58H11.2802C10.6234 56.58 10.1049 56.6145 9.75921 56.8565C9.39625 57.1158 9.22341 57.5306 9.22341 58.0491C9.22341 59.2762 10.0012 59.9157 11.3493 59.9157H16.7073V62.6639L3.08767 62.6639L3.08767 59.9157H8.92959V59.8812C8.08268 59.4664 7.25306 58.4985 7.25306 56.9775C7.25306 54.7479 8.41108 53.8318 10.6925 53.8318L16.7073 53.8318V56.58Z" fill="#894D99"/>
<path d="M11.1419 46.5446H11.0209C9.70736 46.631 8.92959 47.1495 8.92959 48.1865C8.92959 49.31 9.72464 49.8976 11.1419 50.0359L11.1419 46.5446ZM14.011 43.831C15.8085 44.1076 16.9493 45.7149 16.9493 48.2211C16.9493 51.2112 15.0308 52.8013 12.058 52.8013C9.22341 52.8013 7.21849 51.1075 7.21849 48.1865C7.21849 45.0582 9.27527 43.7446 11.9888 43.7446H12.7147V50.0359C14.374 49.9149 15.0999 49.2927 15.0999 48.1347C15.0999 47.0458 14.5641 46.7001 14.011 46.5273V43.831Z" fill="#894D99"/>
<path d="M27.5586 55.9814H31.4993C33.9882 55.9814 36.1314 54.8752 36.1314 51.7296C36.1314 48.5148 33.6771 47.5815 31.603 47.5815H27.5586V55.9814ZM36.6153 70.085L31.6376 60.0258H27.5586V70.085H21.8895V43.6408H32.2253C33.9191 43.6408 35.8548 43.8827 37.5487 44.6086C40.0375 45.7148 41.9387 47.7543 41.9387 51.4185C41.9387 55.6011 39.3116 57.7098 36.8227 58.6777V58.7468L42.7338 70.085H36.6153Z" fill="#894D99"/>
<path d="M55.8425 58.9542V58.7122C55.6696 56.0851 54.6326 54.5295 52.5585 54.5295C50.3117 54.5295 49.1364 56.1197 48.8598 58.9542H55.8425ZM61.2696 64.6924C60.7165 68.2874 57.5017 70.5689 52.4894 70.5689C46.5092 70.5689 43.329 66.7319 43.329 60.7863C43.329 55.1172 46.7166 51.1074 52.5585 51.1074C58.8153 51.1074 61.4424 55.2209 61.4424 60.648V62.0998H48.8598C49.1018 65.4183 50.3462 66.8702 52.6623 66.8702C54.84 66.8702 55.5314 65.7986 55.877 64.6924H61.2696Z" fill="#894D99"/>
<path d="M70.2428 66.8356C72.1441 66.8356 73.907 65.3492 73.907 62.2727V61.685C71.0033 61.8579 69.5515 62.0998 68.6873 62.6875C68.0651 63.1023 67.7885 63.7937 67.7885 64.5541C67.7885 65.9023 68.7219 66.8356 70.2428 66.8356ZM68.4108 57.053H63.1565C63.3639 53.3542 66.3021 51.1419 71.1416 51.1419C77.1218 51.1419 79.1958 53.5962 79.1958 58.5394V64.9344C79.1958 65.9368 79.5069 66.3171 80.6822 66.3171V70.1195H78.8502C76.1885 70.1195 74.9095 69.601 74.3218 67.5615H74.2527C73.0774 69.2899 71.2799 70.2924 68.6527 70.2924C64.7812 70.2924 62.3614 68.2529 62.3614 64.7961C62.3614 62.6529 63.3293 61.132 65.1614 60.1641C67.1318 59.127 69.9317 58.9542 73.8724 58.7814V57.7789C73.8724 55.7394 73.0082 54.6678 71.1416 54.6678C69.3441 54.6678 68.4799 55.6703 68.4108 57.053Z" fill="#894D99"/>
<path d="M82.5483 70.085V42.8457H88.0446V70.085H82.5483Z" fill="#894D99"/>
<path d="M13.7575 83.0824C13.723 83.2206 13.4119 84.7762 12.7205 86.9194L10.2662 94.6279H17.2489L14.8291 86.9539C14.1032 84.6379 13.8267 83.0824 13.8267 83.0824H13.7575ZM20.5673 104.653L18.6316 98.776H8.91807L6.98228 104.653H1.55518L10.7847 78.2083H17.1452L26.513 104.653H20.5673Z" fill="#894D99"/>
<path d="M33.5558 96.3909C33.5558 99.2946 34.8003 101.438 37.3583 101.438C39.778 101.438 41.1607 99.3637 41.1607 95.3884C41.1607 91.4823 39.9508 89.4774 37.3237 89.4774C35.1459 89.4774 33.5558 91.3094 33.5558 94.386V96.3909ZM28.1287 111.151V86.1243H33.4176V89.1317H33.4867C34.3509 87.4724 36.3212 85.7095 39.3286 85.7095C43.615 85.7095 46.7607 88.4749 46.7607 95.3193C46.7607 101.507 43.615 105.102 38.8101 105.102C36.1484 105.102 34.4892 103.788 33.7287 102.336H33.625V111.151H28.1287Z" fill="#894D99"/>
<path d="M57.593 105.136C51.7511 105.136 48.2252 101.438 48.2252 95.3884C48.2252 89.3045 51.8202 85.6749 57.6276 85.6749C63.2966 85.6749 66.9954 89.27 66.9954 95.3884C66.9954 101.438 63.1584 105.136 57.593 105.136ZM57.6276 89.3737C54.8967 89.3737 53.8943 91.9662 53.8943 95.3884C53.8943 98.9834 54.9313 101.438 57.6276 101.438C60.393 101.438 61.2917 98.8106 61.2917 95.3884C61.2917 91.828 60.3238 89.3737 57.6276 89.3737Z" fill="#894D99"/>
<path d="M69.1129 104.653V77.4133H74.6091V104.653H69.1129Z" fill="#894D99"/>
<path d="M86.0869 105.136C80.245 105.136 76.7191 101.438 76.7191 95.3884C76.7191 89.3045 80.3141 85.6749 86.1215 85.6749C91.7906 85.6749 95.4893 89.27 95.4893 95.3884C95.4893 101.438 91.6523 105.136 86.0869 105.136ZM86.1215 89.3737C83.3907 89.3737 82.3882 91.9662 82.3882 95.3884C82.3882 98.9834 83.4252 101.438 86.1215 101.438C88.8869 101.438 89.7857 98.8106 89.7857 95.3884C89.7857 91.828 88.8178 89.3737 86.1215 89.3737Z" fill="#894D99"/>
<path d="M110.32 96.218V94.2131C110.32 91.2057 108.764 89.4774 106.448 89.4774C104.167 89.4774 102.542 91.3094 102.542 95.0427C102.542 98.5686 103.786 100.574 106.448 100.574C108.764 100.574 110.32 98.7069 110.32 96.218ZM106.275 111.531C100.502 111.531 97.8061 109.25 97.5296 105.759H102.818C103.164 107.141 103.959 107.936 106.344 107.936C109.041 107.936 110.32 106.727 110.32 103.443V100.816H110.216C109.559 102.302 107.934 104.065 104.823 104.065C99.9839 104.065 96.942 101.265 96.942 95.0427C96.942 88.9934 100.468 85.7441 104.962 85.7441C107.796 85.7441 109.49 87.1613 110.25 88.6477H110.32V86.1243H115.574V103.166C115.574 108.766 112.566 111.531 106.275 111.531Z" fill="#894D99"/>
<path d="M118.875 82.9095V77.9318H124.44V82.9095H118.875ZM118.909 104.653V86.1243H124.405V104.653H118.909Z" fill="#894D99"/>
<path d="M139.029 93.5218V93.2798C138.856 90.6527 137.819 89.0971 135.745 89.0971C133.498 89.0971 132.323 90.6872 132.046 93.5218H139.029ZM144.456 99.26C143.903 102.855 140.688 105.136 135.676 105.136C129.696 105.136 126.515 101.299 126.515 95.3539C126.515 89.6848 129.903 85.6749 135.745 85.6749C142.002 85.6749 144.629 89.7885 144.629 95.2156V96.6674H132.046C132.288 99.9859 133.533 101.438 135.849 101.438C138.026 101.438 138.718 100.366 139.063 99.26H144.456Z" fill="#894D99"/>
<path d="M161.311 91.2749H156.471C156.367 90.0996 155.503 89.1663 153.809 89.1663C152.116 89.1663 151.217 89.9959 151.217 91.102C151.217 92.1391 151.77 92.7613 153.36 92.9687L156.506 93.3835C159.893 93.8329 161.864 95.4921 161.864 98.8452C161.864 102.959 158.511 105.171 153.809 105.171C148.279 105.171 145.928 102.578 145.686 99.26H150.733C150.802 100.574 151.666 101.645 153.844 101.645C155.607 101.645 156.782 100.954 156.782 99.6057C156.782 98.4995 156.298 97.9464 154.57 97.7044L151.597 97.2896C148.14 96.8057 146.17 95.1119 146.17 91.7588C146.17 88.544 148.59 85.6749 153.844 85.6749C158.683 85.6749 161.069 88.0255 161.311 91.2749Z" fill="#894D99"/>
<rect x="0.864014" y="0.589844" width="86.0589" height="29.1664" fill="var(--color-purple-400)"/>
<path d="M0.864014 41.2784V29.7559H13.1067L0.864014 41.2784Z" fill="var(--color-purple-400)"/>
<path d="M75.7348 22.8128C74.235 22.8284 72.1714 22.1236 72.8887 20.3576C73.0191 19.9268 72.8772 19.5313 72.6892 19.1476C72.3018 18.3996 72.7736 17.6478 73.1111 16.9743C73.2607 16.5944 73.0651 16.2185 72.8887 15.8857C72.5665 15.2944 72.3939 14.6522 72.4361 14.0217C72.5089 12.0129 74.5112 11.0536 76.2833 11.2298C76.5288 11.2298 76.7819 11.2219 77.0121 11.1358C77.4225 11.0144 77.6718 10.5367 78.0286 10.3213C78.4965 10.0668 79.0834 10.6306 79.2406 11.0418C79.3864 11.4804 78.9798 11.9033 78.9952 12.3301C78.9952 12.569 79.0872 12.8118 79.1678 13.0389C80.0999 15.5959 78.4198 17.2797 75.9189 17.2484C75.6734 17.2875 75.2131 17.3345 75.2016 17.6321C75.2246 17.8044 75.5814 17.8671 75.9342 17.8084C76.7628 17.683 77.6718 17.3619 78.4888 17.6987C79.9234 18.3448 79.8314 20.6277 78.93 21.685C78.1743 22.5661 76.8855 22.8519 75.7962 22.8206H75.7271L75.7348 22.8128ZM76.314 20.616C76.6669 20.6238 78.0017 20.5808 77.5031 19.9151C76.6976 19.5666 75.7309 19.9581 74.8794 19.9816C74.3156 20.1109 74.749 20.4789 75.1479 20.5103C75.4701 20.5768 75.9841 20.6277 76.2603 20.616H76.3101H76.314ZM76.126 14.9224C76.7781 14.8323 76.8472 13.8925 76.2219 13.6889C75.2285 13.4461 75.0213 14.8989 76.0915 14.9263H76.126V14.9224ZM14.4397 14.57C14.4397 15.9366 14.4129 17.3659 14.4244 18.7403C14.432 18.9714 14.4589 19.2337 14.5778 19.4217C14.7926 19.7937 15.3526 19.7819 15.8398 19.778C16.2348 19.7623 16.7757 19.8289 17.0864 19.6135C17.9648 18.9009 16.8064 14.985 17.842 14.4877C18.8623 14.2215 18.3407 17.6478 18.4366 18.2508C18.3675 19.4843 18.6399 19.9033 19.9555 19.8015C21.3249 19.8916 21.4476 19.3199 21.3939 18.0668C21.3172 16.2303 21.7468 14.1784 21.0525 12.4358C20.6306 11.2376 19.2344 11.0183 18.1949 11.4686C17.9571 11.5391 17.7385 11.5548 17.5927 11.4451C17.4738 11.359 17.4086 11.1984 17.3779 11.0105C17.2858 10.4975 17.4776 9.89447 17.1976 9.42457C16.9751 9.07215 16.4458 9.10347 15.9817 9.09956C15.6672 9.10347 15.3334 9.07606 15.0304 9.16613C14.6545 9.26794 14.5241 9.65561 14.5011 10.0198C14.4397 11.5039 14.4551 13.0232 14.4397 14.5034V14.5739V14.57ZM52.9965 14.566C53.0042 16.0345 53.1154 17.546 53.0311 19.0262C52.985 19.7428 52.2601 19.8681 51.5812 19.7506C51.2321 19.7075 50.9905 19.4608 50.8332 19.1554C50.6222 18.7207 50.1849 18.6972 49.8397 18.9988C45.9234 22.5622 44.953 13.963 47.4884 11.9777C47.9449 11.59 48.5164 11.3512 49.0956 11.2572C49.5444 11.1828 49.9778 11.0301 50.0967 10.5484C50.2003 10.2038 50.1351 9.78874 50.3039 9.46373C50.5302 8.99383 51.2705 9.06823 51.8305 9.07215C52.0568 9.0839 52.2984 9.11522 52.4902 9.24444C52.7434 9.41674 52.8124 9.74959 52.8393 10.0433C52.916 11.4765 52.9543 13.0976 52.9927 14.4956V14.566H52.9965ZM50.3192 15.3453C50.277 14.9576 50.2578 14.4172 49.9126 14.1549C49.5904 13.9082 49.0726 14.0335 48.9115 14.3859C48.5739 15.0751 48.4665 16.7393 49.5367 16.7824C50.2233 16.8216 50.3422 15.8426 50.3192 15.3962V15.3453ZM60.4609 14.6835C60.4877 15.9797 60.4839 17.2523 60.5031 18.5524C60.5184 19.0458 60.4532 19.6919 59.8702 19.7623C59.337 19.8524 58.6658 19.8172 58.4049 19.3355C58.2592 19.1202 58.1211 18.8147 57.8411 18.7873C57.469 18.7638 57.1737 19.1084 56.8937 19.3238C56.4832 19.6919 55.9424 19.9268 55.4399 19.8485C52.7702 19.4099 52.9889 12.9097 55.2865 11.6958C55.6547 11.4725 56.1112 11.3237 56.5599 11.2454C56.9972 11.1671 57.4 11.0692 57.5381 10.615C57.6531 10.2626 57.5918 9.83182 57.7413 9.48723C57.937 8.986 58.6926 9.05648 59.2181 9.0604C59.8395 9.02124 60.2883 9.41282 60.2921 10.0629C60.3957 11.5235 60.388 13.1877 60.457 14.6091V14.6757L60.4609 14.6835ZM57.749 15.3727C57.8296 13.4814 56.0153 13.6145 56.1457 15.451C56.0268 17.2758 57.9024 17.2366 57.749 15.4236V15.3727ZM31.0446 14.6013C31.0638 13.2386 31.1022 11.8955 31.1597 10.5406C31.175 10.3056 31.2172 10.0433 31.3438 9.85923C31.4934 9.63211 31.7657 9.55771 32.0266 9.53813C32.6441 9.5068 33.2847 9.5068 33.8984 9.50289C35.3713 9.49114 37.2278 9.91797 37.7648 11.5078C38.2405 12.9958 38.3402 14.8754 37.2777 16.105C36.7867 16.6728 36.0733 16.9743 35.3675 17.1466C34.865 17.2641 34.4086 17.5068 34.3088 18.0511C34.2053 18.474 34.3318 18.9518 34.1823 19.3668C33.8716 20.0365 32.8858 19.7193 32.2874 19.7937C31.6353 19.8407 30.9986 19.6762 31.0063 18.8852C30.9641 17.4716 31.0063 16.0619 31.0408 14.6757V14.6052L31.0446 14.6013ZM33.7603 13.3717C33.7833 13.779 33.8716 14.5073 34.3894 14.57C35.5478 14.7658 35.5056 11.8446 34.3395 12.0325C33.8524 12.1461 33.7373 12.9332 33.7565 13.3286V13.3756L33.7603 13.3717ZM64.941 15.733C65.0024 16.8725 64.7953 18.0903 64.9986 19.2102C65.129 19.7467 65.6353 19.8093 66.1723 19.7937C66.6249 19.7819 67.231 19.8681 67.5954 19.5901C67.7756 19.453 67.8639 19.2259 67.8945 18.9948C68.0019 17.7653 67.7756 16.4809 67.9828 15.267C68.0365 14.9341 68.3702 14.57 68.6694 14.8715C68.8074 15.0125 68.8688 15.2396 68.8957 15.4432C68.9839 16.5631 68.8957 17.683 68.9225 18.8108C68.9033 19.7702 69.6283 19.8367 70.4606 19.7976C71.27 19.8289 71.9221 19.7114 71.876 18.7129C71.7878 16.5944 72.2366 14.3703 71.527 12.3536C71.1051 11.3081 69.7319 10.9087 68.8113 11.4921C68.4315 11.6958 68.117 12.1382 67.6759 12.1774C67.2118 12.1931 67.0277 11.5469 66.5866 11.4451C66.0304 11.2924 65.1635 11.3042 65.0331 11.9777C64.8758 13.172 64.964 14.4486 64.941 15.6586V15.729V15.733ZM45.5475 15.3414C45.5475 14.5034 45.536 13.5205 45.5207 12.6003C45.513 12.291 45.513 11.9385 45.3404 11.6801C45.1294 11.3433 44.6423 11.3394 44.205 11.3433C43.7754 11.3629 43.1886 11.2728 42.8549 11.5274C42.6285 11.7075 42.5902 12.0403 42.5787 12.3262C42.5595 13.3756 42.6017 14.4447 42.5672 15.4941C42.548 15.8074 42.4828 16.2342 42.1721 16.3634C41.1019 16.6649 41.6773 13.0154 41.5392 12.2988C41.5622 11.3747 40.8258 11.312 40.0279 11.3512C39.1227 11.312 38.5473 11.4412 38.6125 12.5259C38.6125 14.4916 38.2827 16.5396 38.812 18.4271C39.0767 19.684 40.5611 20.338 41.6351 19.6605C42.0187 19.4608 42.3255 19.0183 42.7666 18.9714C42.9623 18.9596 43.131 19.0888 43.2883 19.2611C43.5645 19.6096 43.9058 19.8015 44.347 19.7937C45.0527 19.8563 45.5706 19.5822 45.5591 18.846C45.5859 17.6987 45.5437 16.5475 45.5475 15.4119V15.3414ZM28.4593 18.3135C28.6128 20.0482 27.1782 19.9151 25.9278 19.872C23.5841 19.8642 21.6241 17.8828 21.8465 15.4158C21.7506 12.5807 24.4011 10.474 27.0171 11.3551C28.5514 11.7467 29.1843 13.7555 28.3212 15.032C27.8226 15.776 26.902 15.9523 26.0582 16.0854C24.708 16.43 25.8319 16.9821 26.5952 16.9351C28.1064 16.9234 28.5284 16.661 28.4555 18.2508V18.3213L28.4593 18.3135ZM25.0762 14.8206C25.4291 14.8206 26.1426 14.5504 25.9393 14.0648C25.8856 13.9395 25.7014 13.7555 25.5634 13.7437C25.1721 13.6537 24.6696 13.869 24.6044 14.3115C24.5661 14.5739 24.8039 14.8441 25.0494 14.8206H25.0762ZM10.5503 9.54205C9.89437 9.54988 9.14257 9.54205 8.46748 9.54205C7.98034 9.51855 7.43183 9.67127 7.38964 10.2665C7.35511 10.5484 7.36279 10.8578 7.35511 11.1671C7.35895 11.7388 7.28991 12.4437 7.73102 12.6943C8.05705 12.8862 8.50967 12.8235 8.82037 13.0389C9.10037 13.2151 9.18092 13.6028 9.18092 13.9356C9.17325 15.5763 8.83954 17.2366 8.92393 18.8539C8.92009 19.8681 9.7793 19.7898 10.6308 19.778C11.2791 19.7428 12.3339 19.9738 12.4413 19.0849C12.5564 17.3228 12.1651 15.5293 12.215 13.7751C12.2303 12.9645 12.8632 12.8862 13.4923 12.7687C14.294 12.475 13.9372 11.2298 14.0101 10.5445C14.0293 9.89447 13.6381 9.49897 13.0013 9.53813C12.2073 9.5303 11.3366 9.53813 10.6117 9.54596H10.5426L10.5503 9.54205ZM61.2012 15.8152C61.2357 16.9899 60.9864 18.2704 61.2817 19.4099C61.5963 19.9816 62.5897 19.7154 63.1843 19.7741C63.6906 19.8015 64.2813 19.6566 64.3081 19.0379C64.3772 17.9493 64.2966 16.8529 64.2698 15.7643C64.2391 14.6718 64.2007 13.5988 64.147 12.5298C64.147 12.0168 63.9936 11.4256 63.4067 11.4021C62.816 11.3981 61.8494 11.2141 61.5195 11.6997C61.0823 12.9175 61.3393 14.5073 61.205 15.7486V15.8191L61.2012 15.8152ZM62.5475 8.6649C61.6231 8.62574 60.8905 9.69868 61.5541 10.4858C61.9261 10.8969 62.5092 10.9087 63.0232 10.8734C63.8593 10.8656 64.3426 10.0315 64.0128 9.29535C63.8095 8.75888 63.0308 8.64141 62.6012 8.6649H62.5437H62.5475Z" fill="#F9E3FF"/>
</svg>
