<svg width="2429" height="1738" viewBox="0 0 2429 1738" fill="none" xmlns="http://www.w3.org/2000/svg">
<circle cx="1673.5" cy="868.5" r="676.5" fill="#F7F7F7" fill-opacity="0.5"/>
<circle cx="1673.5" cy="868.5" r="664" stroke="var(--color-purple-400)" stroke-opacity="0.5" stroke-width="25"/>
<circle cx="756.5" cy="868.5" r="676.5" fill="#F7F7F7" fill-opacity="0.7"/>
<circle cx="756.5" cy="868.5" r="664" stroke="#49BDE2" stroke-opacity="0.5" stroke-width="25"/>
<path d="M383.118 810.95L375.638 848.35H356.768L372.238 810.95H383.118ZM354.898 810.95L347.418 848.35H328.548L344.018 810.95H354.898ZM455.192 873.85H440.572C439.722 865.86 433.262 860.76 422.722 860.76C412.182 860.76 405.212 866.88 405.212 875.21C405.212 882.52 409.632 885.92 418.642 887.45L432.412 889.49C451.112 892.38 457.912 900.03 457.912 915.5C457.912 933.52 443.292 943.21 422.892 943.21C404.362 943.21 389.062 934.88 387.872 915.67H402.832C403.512 922.64 407.422 931.48 423.232 931.48C435.472 931.48 443.122 925.7 443.122 916.35C443.122 909.21 441.252 905.3 429.012 903.26L415.242 901.22C399.262 898.67 390.762 892.04 390.762 876.4C390.762 860.59 402.832 849.2 423.232 849.2C442.612 849.2 453.662 858.21 455.192 873.85ZM514.66 943.21C488.31 943.21 474.71 924.17 474.71 896.12C474.71 868.41 490.01 849.2 515 849.2C541.69 849.2 554.95 868.41 554.95 896.12C554.95 924.17 539.82 943.21 514.66 943.21ZM514.83 860.93C498.51 860.93 490.52 874.36 490.52 896.12C490.52 918.05 497.83 931.31 515.17 931.31C531.83 931.31 539.14 918.05 539.14 896.12C539.14 874.36 532 860.93 514.83 860.93ZM579.155 941V851.41H593.605V868.24H593.945C598.025 858.89 609.245 849.71 622.335 849.71H623.865V865.69H620.975C604.995 865.69 594.455 874.87 594.455 892.21V941H579.155ZM643.901 941V851.41H658.351V868.24H658.691C662.771 858.89 673.991 849.71 687.081 849.71H688.611V865.69H685.721C669.741 865.69 659.201 874.87 659.201 892.21V941H643.901ZM728.747 941L697.467 851.41H712.767L731.467 907.51C734.357 916.01 735.887 921.45 735.887 921.45H736.397C736.397 921.45 737.927 916.01 740.817 907.34L759.177 851.41H774.477L741.837 946.61C734.697 967.18 728.747 974.83 709.367 974.83C705.967 974.83 702.567 974.32 700.187 973.81V961.23C703.077 961.91 706.477 962.08 708.007 962.08C719.397 962.08 723.137 957.83 727.047 945.76L728.747 941ZM818.177 848.52L825.827 810.95H844.527L829.227 848.52H818.177ZM790.127 848.52L797.607 810.95H816.477L801.007 848.52H790.127Z" fill="black"/>
<path d="M1610.58 820.12C1621.97 820.12 1636.08 812.47 1636.08 790.37V788.33C1616.7 789.18 1605.65 790.71 1599.87 794.96C1596.47 797.51 1594.94 801.25 1594.94 806.01C1594.94 815.19 1600.89 820.12 1610.58 820.12ZM1598.68 765.89H1584.06C1584.4 750.08 1596.47 739.2 1617.89 739.2C1640.16 739.2 1651.04 748.55 1651.04 772.52V809.07C1651.04 816.21 1652.57 819.1 1659.2 819.27V831.68H1657.33C1643.05 831.68 1638.29 826.58 1636.76 815.87H1636.42C1631.66 826.41 1620.95 832.53 1607.69 832.53C1589.84 832.53 1579.3 822.84 1579.3 806.86C1579.3 797 1583.55 788.84 1592.73 784.25C1602.08 779.32 1616.02 777.62 1636.08 776.94V773.03C1636.08 756.88 1629.96 750.59 1617.38 750.59C1604.12 750.59 1599.19 758.24 1598.68 765.89ZM1784.7 790.37V781.36C1784.7 763.51 1774.67 751.27 1759.2 751.27C1743.05 751.27 1735.4 764.7 1735.4 784.93C1735.4 804.65 1741.01 818.25 1759.88 818.25C1774.33 818.25 1784.7 805.67 1784.7 790.37ZM1758.52 864.83C1741.52 864.83 1724.01 858.54 1721.97 840.01H1736.76C1738.46 847.66 1744.24 852.59 1758.86 852.59C1775.86 852.59 1784.36 846.3 1784.36 826.58V813.32H1784.19C1779.6 822.16 1769.06 829.81 1755.63 829.81C1736.93 829.81 1719.76 818.08 1719.76 784.93C1719.76 755.35 1735.4 739.2 1757.5 739.2C1771.95 739.2 1780.62 747.19 1784.36 755.52H1784.7V741.41H1799.32V828.79C1799.32 853.95 1782.83 864.83 1758.52 864.83ZM1863.3 833.21C1836.95 833.21 1823.35 814.17 1823.35 786.12C1823.35 758.41 1838.65 739.2 1863.64 739.2C1890.33 739.2 1903.59 758.41 1903.59 786.12C1903.59 814.17 1888.46 833.21 1863.3 833.21ZM1863.47 750.93C1847.15 750.93 1839.16 764.36 1839.16 786.12C1839.16 808.05 1846.47 821.31 1863.81 821.31C1880.47 821.31 1887.78 808.05 1887.78 786.12C1887.78 764.36 1880.64 750.93 1863.47 750.93ZM1961.42 833.21C1935.07 833.21 1921.47 814.17 1921.47 786.12C1921.47 758.41 1936.77 739.2 1961.76 739.2C1988.45 739.2 2001.71 758.41 2001.71 786.12C2001.71 814.17 1986.58 833.21 1961.42 833.21ZM1961.59 750.93C1945.27 750.93 1937.28 764.36 1937.28 786.12C1937.28 808.05 1944.59 821.31 1961.93 821.31C1978.59 821.31 1985.9 808.05 1985.9 786.12C1985.9 764.36 1978.76 750.93 1961.59 750.93ZM2084.52 792.24V782.72C2084.52 763.68 2074.49 751.44 2060.21 751.44C2043.04 751.44 2035.22 765.04 2035.22 786.12C2035.22 806.35 2041.17 821.14 2059.02 821.14C2074.83 821.14 2084.52 808.56 2084.52 792.24ZM2099.48 697.04V831H2084.86V816.21H2084.35C2079.59 825.05 2069.9 833.21 2056.13 833.21C2037.09 833.21 2019.58 821.31 2019.58 786.8C2019.58 756.03 2035.56 739.2 2058.17 739.2C2071.6 739.2 2080.27 746.68 2083.84 755.01H2084.18V697.04H2099.48ZM1566.42 1024.12C1577.81 1024.12 1591.92 1016.47 1591.92 994.37V992.33C1572.54 993.18 1561.49 994.71 1555.71 998.96C1552.31 1001.51 1550.78 1005.25 1550.78 1010.01C1550.78 1019.19 1556.73 1024.12 1566.42 1024.12ZM1554.52 969.89H1539.9C1540.24 954.08 1552.31 943.2 1573.73 943.2C1596 943.2 1606.88 952.55 1606.88 976.52V1013.07C1606.88 1020.21 1608.41 1023.1 1615.04 1023.27V1035.68H1613.17C1598.89 1035.68 1594.13 1030.58 1592.6 1019.87H1592.26C1587.5 1030.41 1576.79 1036.53 1563.53 1036.53C1545.68 1036.53 1535.14 1026.84 1535.14 1010.86C1535.14 1001 1539.39 992.84 1548.57 988.25C1557.92 983.32 1571.86 981.62 1591.92 980.94V977.03C1591.92 960.88 1585.8 954.59 1573.22 954.59C1559.96 954.59 1555.03 962.24 1554.52 969.89ZM1652.06 993.52C1652.06 1011.2 1660.73 1025.14 1677.73 1025.14C1693.71 1025.14 1701.53 1012.39 1701.53 988.93C1701.53 969.89 1695.92 955.44 1677.56 955.44C1661.75 955.44 1652.06 968.87 1652.06 984V993.52ZM1637.27 1066.96V945.41H1652.06V960.37H1652.4C1657.67 950.85 1667.36 943.2 1680.96 943.2C1700 943.2 1717 954.93 1717 988.93C1717 1021.57 1700.17 1037.21 1679.94 1037.21C1666.85 1037.21 1656.31 1029.9 1652.91 1021.91H1652.57V1066.96H1637.27ZM1774.81 1037.21C1748.46 1037.21 1734.86 1018.17 1734.86 990.12C1734.86 962.41 1750.16 943.2 1775.15 943.2C1801.84 943.2 1815.1 962.41 1815.1 990.12C1815.1 1018.17 1799.97 1037.21 1774.81 1037.21ZM1774.98 954.93C1758.66 954.93 1750.67 968.36 1750.67 990.12C1750.67 1012.05 1757.98 1025.31 1775.32 1025.31C1791.98 1025.31 1799.29 1012.05 1799.29 990.12C1799.29 968.36 1792.15 954.93 1774.98 954.93ZM1839.31 1035V901.04H1854.61V1035H1839.31ZM1918.42 1037.21C1892.07 1037.21 1878.47 1018.17 1878.47 990.12C1878.47 962.41 1893.77 943.2 1918.76 943.2C1945.45 943.2 1958.71 962.41 1958.71 990.12C1958.71 1018.17 1943.58 1037.21 1918.42 1037.21ZM1918.59 954.93C1902.27 954.93 1894.28 968.36 1894.28 990.12C1894.28 1012.05 1901.59 1025.31 1918.93 1025.31C1935.59 1025.31 1942.9 1012.05 1942.9 990.12C1942.9 968.36 1935.76 954.93 1918.59 954.93ZM2041.52 994.37V985.36C2041.52 967.51 2031.49 955.27 2016.02 955.27C1999.87 955.27 1992.22 968.7 1992.22 988.93C1992.22 1008.65 1997.83 1022.25 2016.7 1022.25C2031.15 1022.25 2041.52 1009.67 2041.52 994.37ZM2015.34 1068.83C1998.34 1068.83 1980.83 1062.54 1978.79 1044.01H1993.58C1995.28 1051.66 2001.06 1056.59 2015.68 1056.59C2032.68 1056.59 2041.18 1050.3 2041.18 1030.58V1017.32H2041.01C2036.42 1026.16 2025.88 1033.81 2012.45 1033.81C1993.75 1033.81 1976.58 1022.08 1976.58 988.93C1976.58 959.35 1992.22 943.2 2014.32 943.2C2028.77 943.2 2037.44 951.19 2041.18 959.52H2041.52V945.41H2056.14V1032.79C2056.14 1057.95 2039.65 1068.83 2015.34 1068.83ZM2109.1 1035L2077.82 945.41H2093.12L2111.82 1001.51C2114.71 1010.01 2116.24 1015.45 2116.24 1015.45H2116.75C2116.75 1015.45 2118.28 1010.01 2121.17 1001.34L2139.53 945.41H2154.83L2122.19 1040.61C2115.05 1061.18 2109.1 1068.83 2089.72 1068.83C2086.32 1068.83 2082.92 1068.32 2080.54 1067.81V1055.23C2083.43 1055.91 2086.83 1056.08 2088.36 1056.08C2099.75 1056.08 2103.49 1051.83 2107.4 1039.76L2109.1 1035Z" fill="black"/>
<path d="M1233.46 822.4C1233.46 812.88 1227.17 806.76 1216.12 806.76C1205.24 806.76 1196.06 812.71 1196.06 831.07H1170.22C1169.71 804.38 1186.2 785.68 1216.63 785.68C1247.23 785.68 1259.98 801.49 1259.98 821.04C1259.98 836.68 1253.35 845.18 1242.3 854.36L1230.91 863.88C1227.34 866.77 1226.15 868.3 1226.15 873.06V880.37H1202.86V869.49C1202.86 858.78 1204.22 856.06 1213.23 848.75L1222.92 840.76C1229.38 835.32 1233.46 830.9 1233.46 822.4ZM1229.38 921H1199.63V895.16H1229.38V921Z" fill="black"/>
</svg>
